<svg viewBox="0 0 24 25" fill="none" xmlns="http://www.w3.org/2000/svg">
  <g opacity="0.5" clip-path="url(#clip0)">
    <path
      d="M14.12 14.1474C13.8454 14.4421 13.5141 14.6785 13.1462 14.8425C12.7782 15.0065 12.3809 15.0946 11.9781 15.1017C11.5753 15.1088 11.1752 15.0347 10.8016 14.8839C10.4281 14.733 10.0887 14.5084 9.80385 14.2235C9.51897 13.9386 9.29439 13.5993 9.14351 13.2258C8.99262 12.8522 8.91853 12.4521 8.92563 12.0493C8.93274 11.6465 9.02091 11.2492 9.18488 10.8812C9.34884 10.5132 9.58525 10.182 9.88 9.90737M17.94 17.9674C16.2306 19.2704 14.1491 19.9922 12 20.0274C5 20.0274 1 12.0274 1 12.0274C2.24389 9.70926 3.96914 7.68398 6.06 6.08737L17.94 17.9674ZM9.9 4.26737C10.5883 4.10625 11.2931 4.02571 12 4.02737C19 4.02737 23 12.0274 23 12.0274C22.393 13.163 21.6691 14.2321 20.84 15.2174L9.9 4.26737Z"
      stroke="#B89D91" stroke-width="2" stroke-linecap="round" stroke-linejoin="round" />
    <path d="M1 1.02734L23 23.0273" stroke="#ffffff" stroke-width="2" stroke-linecap="round" stroke-linejoin="round" />
  </g>
  <defs>
    <clipPath id="clip0">
      <rect width="24" height="24" fill="white" transform="translate(0 0.0273438)" />
    </clipPath>
  </defs>
</svg>